ffmpeg started on 2016-12-08 at 06:38:49
Report written to "Output/x264/results/ffmpeg/crowd_run_2160p50slower12000k.log"
Command line:
Tools/ffmpeg/ffmpeg -benchmark -y -i Input/y4m/crowd_run_2160p50.y4m -c:v libx264 -preset slower -b:v 12000k -an Output/x264/encoded/crowd_run_2160p50slower12000k.mkv
ffmpeg version N-82227-gdb23fde Copyright (c) 2000-2016 the FFmpeg developers
  built with gcc 5.4.0 (Ubuntu 5.4.0-6ubuntu1~16.04.2) 20160609
  configuration: --prefix=/home/jaroslav/ffmpeg_build --pkg-config-flags=--static --extra-cflags=-I/home/jaroslav/ffmpeg_build/include --extra-ldflags=-L/home/jaroslav/ffmpeg_build/lib --bindir=/home/jaroslav/bin --enable-gpl --enable-libass --enable-libfdk-aac --enable-libfreetype --enable-libmp3lame --enable-libopus --enable-libtheora --enable-libvorbis --enable-libvpx --enable-libx264 --enable-libx265 --enable-nvenc --enable-libmfx --enable-libxvid --enable-libgsm --enable-libopencore-amrnb --enable-version3 --enable-nonfree
  libavutil      55. 35.100 / 55. 35.100
  libavcodec     57. 66.101 / 57. 66.101
  libavformat    57. 57.100 / 57. 57.100
  libavdevice    57.  2.100 / 57.  2.100
  libavfilter     6. 66.100 /  6. 66.100
  libswscale      4.  3.100 /  4.  3.100
  libswresample   2.  4.100 /  2.  4.100
  libpostproc    54.  2.100 / 54.  2.100
Input #0, yuv4mpegpipe, from 'Input/y4m/crowd_run_2160p50.y4m':
  Duration: 00:00:10.00, start: 0.000000, bitrate: 4976642 kb/s
    Stream #0:0: Video: rawvideo (I420 / 0x30323449), yuv420p(progressive), 3840x2160, SAR 1:1 DAR 16:9, 50 fps, 50 tbr, 50 tbn, 50 tbc
[libx264 @ 0x3aa91c0] using SAR=1/1
[libx264 @ 0x3aa91c0] DPB size (8 frames, 259200 mbs) > level limit (5 frames, 184320 mbs)
[libx264 @ 0x3aa91c0] using cpu capabilities: MMX2 SSE2Fast SSSE3 SSE4.2 AVX FMA3 AVX2 LZCNT BMI2
[libx264 @ 0x3aa91c0] profile High, level 5.2
[libx264 @ 0x3aa91c0] 264 - core 148 - H.264/MPEG-4 AVC codec - Copyleft 2003-2016 - http://www.videolan.org/x264.html - options: cabac=1 ref=8 deblock=1:0:0 analyse=0x3:0x133 me=umh subme=9 psy=1 psy_rd=1.00:0.00 mixed_ref=1 me_range=16 chroma_me=1 trellis=2 8x8dct=1 cqm=0 deadzone=21,11 fast_pskip=1 chroma_qp_offset=-2 threads=6 lookahead_threads=1 sliced_threads=0 nr=0 decimate=1 interlaced=0 bluray_compat=0 constrained_intra=0 bframes=3 b_pyramid=2 b_adapt=2 b_bias=0 direct=3 weightb=1 open_gop=0 weightp=2 keyint=250 keyint_min=25 scenecut=40 intra_refresh=0 rc_lookahead=60 rc=abr mbtree=1 bitrate=12000 ratetol=1.0 qcomp=0.60 qpmin=0 qpmax=69 qpstep=4 ip_ratio=1.40 aq=1:1.00
Output #0, matroska, to 'Output/x264/encoded/crowd_run_2160p50slower12000k.mkv':
  Metadata:
    encoder         : Lavf57.57.100
    Stream #0:0: Video: h264 (libx264) (H264 / 0x34363248), yuv420p, 3840x2160 [SAR 1:1 DAR 16:9], q=-1--1, 12000 kb/s, 50 fps, 1k tbn, 50 tbc
    Metadata:
      encoder         : Lavc57.66.101 libx264
    Side data:
      cpb: bitrate max/min/avg: 0/0/12000000 buffer size: 0 vbv_delay: -1
Stream mapping:
  Stream #0:0 -> #0:0 (rawvideo (native) -> h264 (libx264))
Press [q] to stop, [?] for help
frame=   19 fps=0.0 q=0.0 size=       0kB time=00:00:00.00 bitrate=N/A speed=   0x    frame=   27 fps= 24 q=0.0 size=       0kB time=00:00:00.00 bitrate=N/A speed=   0x    frame=   37 fps= 23 q=0.0 size=       0kB time=00:00:00.00 bitrate=N/A speed=   0x    frame=   47 fps= 22 q=0.0 size=       0kB time=00:00:00.00 bitrate=N/A speed=   0x    frame=   50 fps= 18 q=0.0 size=       0kB time=00:00:00.00 bitrate=N/A speed=   0x    frame=   55 fps= 16 q=0.0 size=       0kB time=00:00:00.00 bitrate=N/A speed=   0x    frame=   59 fps= 14 q=0.0 size=       0kB time=00:00:00.00 bitrate=N/A speed=   0x    frame=   63 fps= 13 q=0.0 size=       0kB time=00:00:00.00 bitrate=N/A speed=   0x    frame=   67 fps=8.2 q=0.0 size=       0kB time=00:00:00.00 bitrate=N/A speed=   0x    frame=   70 fps=8.1 q=0.0 size=       0kB time=00:00:00.00 bitrate=N/A speed=   0x    frame=   72 fps=7.5 q=33.0 size=       1kB time=-00:00:00.01 bitrate=N/A speed=N/A    frame=   73 fps=7.1 q=41.0 size=       1kB time=00:00:00.00 bitrate=5888.0kbits/s speed=9.7e-05x    frame=   76 fps=6.7 q=49.0 size=       1kB time=00:00:00.06 bitrate=  96.5kbits/s speed=0.00535x    frame=   80 fps=6.5 q=49.0 size=       1kB time=00:00:00.14 bitrate=  41.8kbits/s speed=0.0114x    frame=   82 fps=6.3 q=49.0 size=       1kB time=00:00:00.18 bitrate=  32.5kbits/s speed=0.0139x    frame=   83 fps=6.1 q=49.0 size=       1kB time=00:00:00.20 bitrate=  29.3kbits/s speed=0.0148x    frame=   87 fps=5.9 q=49.0 size=       1kB time=00:00:00.28 bitrate=  21.0kbits/s speed=0.0191x    frame=   89 fps=5.7 q=48.0 size=       1kB time=00:00:00.32 bitrate=  18.3kbits/s speed=0.0207x    frame=   92 fps=5.7 q=47.0 size=       1kB time=00:00:00.38 bitrate=  15.5kbits/s speed=0.0237x    frame=   94 fps=5.5 q=48.0 size=       1kB time=00:00:00.42 bitrate=  14.0kbits/s speed=0.0247x    frame=   96 fps=5.5 q=47.0 size=       1kB time=00:00:00.46 bitrate=  12.8kbits/s speed=0.0262x    frame=   98 fps=5.3 q=47.0 size=       1kB time=00:00:00.50 bitrate=  11.8kbits/s speed=0.0269x    frame=  100 fps=5.2 q=47.0 size=       1kB time=00:00:00.54 bitrate=  10.9kbits/s speed=0.0281x    frame=  103 fps=5.2 q=47.0 size=       1kB time=00:00:00.60 bitrate=   9.8kbits/s speed=0.0302x    frame=  106 fps=5.1 q=47.0 size=       1kB time=00:00:00.66 bitrate=   8.9kbits/s speed=0.0321x    frame=  107 fps=5.0 q=47.0 size=       1kB time=00:00:00.68 bitrate=   8.6kbits/s speed=0.0318x    frame=  110 fps=5.0 q=47.0 size=       1kB time=00:00:00.74 bitrate=   7.9kbits/s speed=0.0335x    frame=  113 fps=4.9 q=46.0 size=       1kB time=00:00:00.80 bitrate=   7.4kbits/s speed=0.0346x    frame=  114 fps=4.8 q=46.0 size=       1kB time=00:00:00.82 bitrate=   7.2kbits/s speed=0.0346x    frame=  117 fps=4.8 q=46.0 size=       1kB time=00:00:00.88 bitrate=   6.7kbits/s speed=0.0362x    frame=  120 fps=4.8 q=46.0 size=       1kB time=00:00:00.94 bitrate=   6.3kbits/s speed=0.0373x    frame=  121 fps=4.7 q=46.0 size=       1kB time=00:00:00.96 bitrate=   6.1kbits/s speed=0.0371x    frame=  123 fps=4.6 q=46.0 size=       1kB time=00:00:01.00 bitrate=   5.9kbits/s speed=0.0377x    frame=  126 fps=4.6 q=46.0 size=       1kB time=00:00:01.06 bitrate=   5.5kbits/s speed=0.0387x    frame=  128 fps=4.6 q=46.0 size=       1kB time=00:00:01.10 bitrate=   5.3kbits/s speed=0.0393x    frame=  130 fps=4.5 q=46.0 size=       1kB time=00:00:01.14 bitrate=   5.2kbits/s speed=0.0395x    frame=  134 fps=4.5 q=46.0 size=       1kB time=00:00:01.22 bitrate=   4.8kbits/s speed=0.0411x    frame=  135 fps=4.4 q=46.0 size=       1kB time=00:00:01.24 bitrate=   4.7kbits/s speed=0.0405x    frame=  138 fps=4.4 q=46.0 size=       1kB time=00:00:01.30 bitrate=   4.5kbits/s speed=0.0414x    frame=  140 fps=4.4 q=45.0 size=       1kB time=00:00:01.34 bitrate=   4.4kbits/s speed=0.042x    frame=  142 fps=4.3 q=45.0 size=       1kB time=00:00:01.38 bitrate=   4.3kbits/s speed=0.0421x    frame=  144 fps=4.3 q=45.0 size=       1kB time=00:00:01.42 bitrate=   4.1kbits/s speed=0.0424x    frame=  147 fps=4.3 q=45.0 size=       1kB time=00:00:01.48 bitrate=   4.0kbits/s speed=0.0429x    frame=  150 fps=4.2 q=45.0 size=       1kB time=00:00:01.54 bitrate=   3.8kbits/s speed=0.0435x    frame=  151 fps=4.2 q=45.0 size=       1kB time=00:00:01.56 bitrate=   3.8kbits/s speed=0.0434x    frame=  154 fps=4.2 q=45.0 size=       1kB time=00:00:01.62 bitrate=   3.6kbits/s speed=0.0444x    frame=  156 fps=4.2 q=45.0 size=       1kB time=00:00:01.66 bitrate=   3.5kbits/s speed=0.0445x    frame=  158 fps=4.1 q=45.0 size=       1kB time=00:00:01.70 bitrate=   3.5kbits/s speed=0.0443x    frame=  160 fps=4.1 q=45.0 size=       1kB time=00:00:01.74 bitrate=   3.4kbits/s speed=0.0445x    frame=  164 fps=4.1 q=45.0 size=       1kB time=00:00:01.82 bitrate=   3.2kbits/s speed=0.0458x    frame=  165 fps=4.1 q=45.0 size=       1kB time=00:00:01.84 bitrate=   3.2kbits/s speed=0.0453x    frame=  167 fps=4.0 q=45.0 size=       1kB time=00:00:01.88 bitrate=   3.1kbits/s speed=0.0456x    frame=  170 fps=4.0 q=45.0 size=       1kB time=00:00:01.94 bitrate=   3.0kbits/s speed=0.0461x    frame=  171 fps=4.0 q=45.0 size=       1kB time=00:00:01.96 bitrate=   3.0kbits/s speed=0.046x    frame=  174 fps=4.0 q=45.0 size=       1kB time=00:00:02.02 bitrate=   2.9kbits/s speed=0.0464x    frame=  176 fps=4.0 q=45.0 size=       1kB time=00:00:02.06 bitrate=   2.9kbits/s speed=0.0467x    frame=  178 fps=4.0 q=45.0 size=       1kB time=00:00:02.10 bitrate=   2.8kbits/s speed=0.0466x    frame=  181 fps=4.0 q=44.0 size=       1kB time=00:00:02.16 bitrate=   2.7kbits/s speed=0.0473x    frame=  183 fps=3.9 q=45.0 size=       1kB time=00:00:02.20 bitrate=   2.7kbits/s speed=0.0472x    frame=  185 fps=3.9 q=44.0 size=       1kB time=00:00:02.24 bitrate=   2.6kbits/s speed=0.0473x    frame=  187 fps=3.9 q=44.0 size=       1kB time=00:00:02.28 bitrate=   2.6kbits/s speed=0.0474x    frame=  190 fps=3.9 q=44.0 size=       1kB time=00:00:02.34 bitrate=   2.5kbits/s speed=0.0477x    frame=  192 fps=3.9 q=44.0 size=       1kB time=00:00:02.38 bitrate=   2.5kbits/s speed=0.0478x    frame=  196 fps=3.8 q=44.0 size=       1kB time=00:00:02.46 bitrate=   2.4kbits/s speed=0.0481x    frame=  199 fps=3.8 q=44.0 size=       1kB time=00:00:02.52 bitrate=   2.3kbits/s speed=0.0486x    frame=  202 fps=3.8 q=44.0 size=       1kB time=00:00:02.58 bitrate=   2.3kbits/s speed=0.0487x    frame=  203 fps=3.8 q=44.0 size=       1kB time=00:00:02.60 bitrate=   2.3kbits/s speed=0.0484x    frame=  206 fps=3.8 q=44.0 size=       1kB time=00:00:02.66 bitrate=   2.2kbits/s speed=0.049x    frame=  208 fps=3.8 q=44.0 size=       1kB time=00:00:02.70 bitrate=   2.2kbits/s speed=0.0491x    frame=  210 fps=3.8 q=44.0 size=       1kB time=00:00:02.74 bitrate=   2.1kbits/s speed=0.0491x    frame=  212 fps=3.8 q=44.0 size=       1kB time=00:00:02.78 bitrate=   2.1kbits/s speed=0.0492x    frame=  215 fps=3.8 q=44.0 size=       1kB time=00:00:02.84 bitrate=   2.1kbits/s speed=0.0497x    frame=  217 fps=3.7 q=44.0 size=       1kB time=00:00:02.88 bitrate=   2.0kbits/s speed=0.0496x    frame=  218 fps=3.7 q=44.0 size=       1kB time=00:00:02.90 bitrate=   2.0kbits/s speed=0.0493x    frame=  221 fps=3.7 q=44.0 size=       1kB time=00:00:02.96 bitrate=   2.0kbits/s speed=0.0497x    frame=  224 fps=3.7 q=44.0 size=       1kB time=00:00:03.02 bitrate=   1.9kbits/s speed=0.0503x    frame=  225 fps=3.7 q=44.0 size=       1kB time=00:00:03.04 bitrate=   1.9kbits/s speed=0.0499x    frame=  227 fps=3.7 q=44.0 size=       1kB time=00:00:03.08 bitrate=   1.9kbits/s speed=0.05x    frame=  229 fps=3.7 q=44.0 size=       1kB time=00:00:03.12 bitrate=   1.9kbits/s speed=0.05x    frame=  232 fps=3.7 q=44.0 size=       1kB time=00:00:03.18 bitrate=   1.9kbits/s speed=0.0505x    frame=  233 fps=3.7 q=44.0 size=       1kB time=00:00:03.20 bitrate=   1.8kbits/s speed=0.0502x    frame=  236 fps=3.7 q=44.0 size=       1kB time=00:00:03.26 bitrate=   1.8kbits/s speed=0.0505x    frame=  237 fps=3.6 q=44.0 size=    5134kB time=00:00:03.28 bitrate=12818.4kbits/s speed=0.0503x    frame=  240 fps=3.6 q=44.0 size=    5134kB time=00:00:03.34 bitrate=12588.2kbits/s speed=0.0506x    frame=  241 fps=3.6 q=44.0 size=    5134kB time=00:00:03.36 bitrate=12513.3kbits/s speed=0.0505x    frame=  244 fps=3.6 q=44.0 size=    5134kB time=00:00:03.42 bitrate=12293.9kbits/s speed=0.0506x    frame=  246 fps=3.6 q=44.0 size=    5134kB time=00:00:03.46 bitrate=12151.8kbits/s speed=0.0507x    frame=  249 fps=3.6 q=44.0 size=    5134kB time=00:00:03.52 bitrate=11944.7kbits/s speed=0.0512x    frame=  251 fps=3.6 q=44.0 size=    5134kB time=00:00:03.56 bitrate=11810.5kbits/s speed=0.0509x    frame=  252 fps=3.6 q=44.0 size=    5134kB time=00:00:03.58 bitrate=11744.6kbits/s speed=0.0507x    frame=  255 fps=3.6 q=44.0 size=    5134kB time=00:00:03.64 bitrate=11551.0kbits/s speed=0.0512x    frame=  257 fps=3.6 q=44.0 size=    5134kB time=00:00:03.68 bitrate=11425.5kbits/s speed=0.0513x    frame=  259 fps=3.6 q=44.0 size=    5134kB time=00:00:03.72 bitrate=11302.7kbits/s speed=0.0511x    frame=  261 fps=3.6 q=44.0 size=    5134kB time=00:00:03.76 bitrate=11182.5kbits/s speed=0.0513x    frame=  262 fps=3.5 q=44.0 size=    5134kB time=00:00:03.78 bitrate=11123.3kbits/s speed=0.0512x    frame=  264 fps=3.5 q=44.0 size=    5134kB time=00:00:03.82 bitrate=11006.9kbits/s speed=0.0514x    frame=  266 fps=3.5 q=44.0 size=    5134kB time=00:00:03.86 bitrate=10892.8kbits/s speed=0.0514x    frame=  267 fps=3.5 q=44.0 size=    5134kB time=00:00:03.88 bitrate=10836.7kbits/s speed=0.0512x    frame=  270 fps=3.5 q=44.0 size=    5134kB time=00:00:03.94 bitrate=10671.7kbits/s speed=0.0515x    frame=  271 fps=3.5 q=44.0 size=    5134kB time=00:00:03.96 bitrate=10617.8kbits/s speed=0.0513x    frame=  275 fps=3.5 q=44.0 size=    5134kB time=00:00:04.04 bitrate=10407.6kbits/s speed=0.0518x    frame=  277 fps=3.5 q=44.0 size=    5134kB time=00:00:04.08 bitrate=10305.6kbits/s speed=0.0516x    frame=  279 fps=3.5 q=44.0 size=    5134kB time=00:00:04.12 bitrate=10205.6kbits/s speed=0.0516x    frame=  281 fps=3.5 q=44.0 size=    5134kB time=00:00:04.16 bitrate=10107.5kbits/s speed=0.0518x    frame=  284 fps=3.5 q=44.0 size=    5134kB time=00:00:04.22 bitrate=9963.8kbits/s speed=0.052x    frame=  285 fps=3.5 q=44.0 size=    5134kB time=00:00:04.24 bitrate=9916.8kbits/s speed=0.0517x    frame=  287 fps=3.5 q=44.0 size=    5134kB time=00:00:04.28 bitrate=9824.2kbits/s speed=0.0517x    frame=  290 fps=3.5 q=44.0 size=    5134kB time=00:00:04.34 bitrate=9688.4kbits/s speed=0.0519x    frame=  293 fps=3.5 q=44.0 size=    5134kB time=00:00:04.40 bitrate=9556.3kbits/s speed=0.0519x    frame=  294 fps=3.4 q=44.0 size=    5134kB time=00:00:04.42 bitrate=9513.1kbits/s speed=0.0518x    frame=  298 fps=3.5 q=44.0 size=    5134kB time=00:00:04.50 bitrate=9344.0kbits/s speed=0.0523x    frame=  300 fps=3.4 q=44.0 size=    5134kB time=00:00:04.54 bitrate=9261.7kbits/s speed=0.0519x    frame=  302 fps=3.4 q=44.0 size=    5134kB time=00:00:04.58 bitrate=9180.8kbits/s speed=0.052x    frame=  304 fps=3.4 q=44.0 size=    5134kB time=00:00:04.62 bitrate=9101.3kbits/s speed=0.052x    frame=  307 fps=3.4 q=44.0 size=    5134kB time=00:00:04.68 bitrate=8984.7kbits/s speed=0.0524x    frame=  308 fps=3.4 q=44.0 size=    5134kB time=00:00:04.70 bitrate=8946.5kbits/s speed=0.0519x    frame=  310 fps=3.4 q=44.0 size=    5134kB time=00:00:04.74 bitrate=8871.0kbits/s speed=0.052x    frame=  313 fps=3.4 q=44.0 size=    5134kB time=00:00:04.80 bitrate=8760.1kbits/s speed=0.0523x    frame=  315 fps=3.4 q=44.0 size=    5134kB time=00:00:04.84 bitrate=8687.7kbits/s speed=0.0524x    frame=  316 fps=3.4 q=41.0 size=    5134kB time=00:00:04.86 bitrate=8652.0kbits/s speed=0.0522x    frame=  318 fps=3.4 q=44.0 size=    5134kB time=00:00:04.90 bitrate=8581.4kbits/s speed=0.0523x    frame=  323 fps=3.4 q=44.0 size=    7455kB time=00:00:05.00 bitrate=12212.6kbits/s speed=0.053x    frame=  325 fps=3.4 q=44.0 size=    7455kB time=00:00:05.04 bitrate=12115.7kbits/s speed=0.0531x    frame=  328 fps=3.4 q=44.0 size=    7455kB time=00:00:05.10 bitrate=11973.2kbits/s speed=0.0534x    frame=  329 fps=3.4 q=44.0 size=    7455kB time=00:00:05.12 bitrate=11926.5kbits/s speed=0.0533x    frame=  331 fps=3.4 q=44.0 size=    7455kB time=00:00:05.16 bitrate=11834.0kbits/s speed=0.0534x    frame=  333 fps=3.4 q=44.0 size=    7455kB time=00:00:05.20 bitrate=11743.0kbits/s speed=0.0535x    frame=  335 fps=3.4 q=44.0 size=    7455kB time=00:00:05.24 bitrate=11653.4kbits/s speed=0.0535x    frame=  337 fps=3.4 q=44.0 size=    7455kB time=00:00:05.28 bitrate=11565.1kbits/s speed=0.0536x    frame=  339 fps=3.4 q=44.0 size=    7455kB time=00:00:05.32 bitrate=11478.2kbits/s speed=0.0536x    frame=  341 fps=3.4 q=44.0 size=    7455kB time=00:00:05.36 bitrate=11392.5kbits/s speed=0.0535x    frame=  344 fps=3.4 q=44.0 size=    7455kB time=00:00:05.42 bitrate=11266.4kbits/s speed=0.0535x    frame=  345 fps=3.4 q=44.0 size=    7455kB time=00:00:05.44 bitrate=11225.0kbits/s speed=0.0534x    frame=  348 fps=3.4 q=44.0 size=    7455kB time=00:00:05.50 bitrate=11102.6kbits/s speed=0.0537x    frame=  350 fps=3.4 q=44.0 size=    7455kB time=00:00:05.54 bitrate=11022.5kbits/s speed=0.0538x    frame=  352 fps=3.4 q=44.0 size=    7455kB time=00:00:05.58 bitrate=10943.5kbits/s speed=0.0534x    frame=  354 fps=3.4 q=44.0 size=    7455kB time=00:00:05.62 bitrate=10865.6kbits/s speed=0.0535x    frame=  358 fps=3.4 q=44.0 size=    7455kB time=00:00:05.70 bitrate=10713.1kbits/s speed=0.0539x    frame=  360 fps=3.4 q=44.0 size=    7455kB time=00:00:05.74 bitrate=10638.5kbits/s speed=0.0536x    frame=  362 fps=3.4 q=44.0 size=    7455kB time=00:00:05.78 bitrate=10564.9kbits/s speed=0.0537x    frame=  365 fps=3.4 q=44.0 size=    7455kB time=00:00:05.84 bitrate=10456.3kbits/s speed=0.0538x    frame=  368 fps=3.3 q=44.0 size=    7455kB time=00:00:05.90 bitrate=10350.0kbits/s speed=0.0537x    frame=  370 fps=3.3 q=44.0 size=    7455kB time=00:00:05.94 bitrate=10280.3kbits/s speed=0.0536x    frame=  374 fps=3.4 q=44.0 size=    7455kB time=00:00:06.02 bitrate=10143.7kbits/s speed=0.0541x    frame=  375 fps=3.4 q=44.0 size=    7455kB time=00:00:06.04 bitrate=10110.1kbits/s speed=0.054x    frame=  376 fps=3.3 q=44.0 size=    7455kB time=00:00:06.06 bitrate=10076.8kbits/s speed=0.0539x    frame=  377 fps=3.3 q=44.0 size=    7455kB time=00:00:06.08 bitrate=10043.6kbits/s speed=0.0538x    frame=  379 fps=3.3 q=44.0 size=    7455kB time=00:00:06.12 bitrate=9978.0kbits/s speed=0.0539x    frame=  381 fps=3.3 q=44.0 size=    7455kB time=00:00:06.16 bitrate=9913.2kbits/s speed=0.0539x    frame=  384 fps=3.3 q=44.0 size=    7455kB time=00:00:06.22 bitrate=9817.6kbits/s speed=0.0541x    frame=  385 fps=3.3 q=44.0 size=    7455kB time=00:00:06.24 bitrate=9786.2kbits/s speed=0.0538x    frame=  388 fps=3.3 q=44.0 size=    7455kB time=00:00:06.30 bitrate=9693.0kbits/s speed=0.054x    frame=  390 fps=3.3 q=44.0 size=    7455kB time=00:00:06.34 bitrate=9631.8kbits/s speed=0.054x    frame=  393 fps=3.3 q=44.0 size=    7455kB time=00:00:06.40 bitrate=9541.5kbits/s speed=0.054x    frame=  395 fps=3.3 q=44.0 size=    7455kB time=00:00:06.44 bitrate=9482.3kbits/s speed=0.0541x    frame=  398 fps=3.3 q=44.0 size=    7455kB time=00:00:06.50 bitrate=9394.8kbits/s speed=0.0541x    frame=  399 fps=3.3 q=44.0 size=    7455kB time=00:00:06.52 bitrate=9366.0kbits/s speed=0.054x    frame=  402 fps=3.3 q=44.0 size=    7455kB time=00:00:06.58 bitrate=9280.6kbits/s speed=0.0542x    frame=  403 fps=3.3 q=44.0 size=    7455kB time=00:00:06.60 bitrate=9252.4kbits/s speed=0.0541x    frame=  406 fps=3.3 q=44.0 size=    7455kB time=00:00:06.66 bitrate=9169.1kbits/s speed=0.054x    frame=  408 fps=3.3 q=44.0 size=    7455kB time=00:00:06.70 bitrate=9114.4kbits/s speed=0.054x    frame=  411 fps=3.3 q=44.0 size=    7455kB time=00:00:06.76 bitrate=9033.5kbits/s speed=0.0542x    frame=  413 fps=3.3 q=44.0 size=    7455kB time=00:00:06.80 bitrate=8980.4kbits/s speed=0.0543x    frame=  414 fps=3.3 q=44.0 size=    7455kB time=00:00:06.82 bitrate=8954.0kbits/s speed=0.054x    frame=  417 fps=3.3 q=44.0 size=    7455kB time=00:00:06.88 bitrate=8876.0kbits/s speed=0.0542x    frame=  419 fps=3.3 q=44.0 size=    7455kB time=00:00:06.92 bitrate=8824.7kbits/s speed=0.0543x    frame=  421 fps=3.3 q=44.0 size=    7455kB time=00:00:06.96 bitrate=8773.9kbits/s speed=0.0543x    frame=  423 fps=3.3 q=44.0 size=    7455kB time=00:00:07.00 bitrate=8723.8kbits/s speed=0.0543x    frame=  424 fps=3.3 q=44.0 size=    7455kB time=00:00:07.02 bitrate=8699.0kbits/s speed=0.0541x    frame=  427 fps=3.3 q=44.0 size=    7455kB time=00:00:07.08 bitrate=8625.3kbits/s speed=0.0543x    frame=  428 fps=3.3 q=44.0 size=    7455kB time=00:00:07.10 bitrate=8601.0kbits/s speed=0.0542x    frame=  431 fps=3.3 q=44.0 size=    7455kB time=00:00:07.16 bitrate=8528.9kbits/s speed=0.0543x    frame=  432 fps=3.3 q=44.0 size=    7455kB time=00:00:07.18 bitrate=8505.1kbits/s speed=0.0542x    frame=  435 fps=3.3 q=44.0 size=    7455kB time=00:00:07.24 bitrate=8434.7kbits/s speed=0.0542x    frame=  437 fps=3.3 q=44.0 size=    7455kB time=00:00:07.28 bitrate=8388.3kbits/s speed=0.0543x    frame=  440 fps=3.3 q=44.0 size=    7455kB time=00:00:07.34 bitrate=8319.8kbits/s speed=0.0545x    frame=  442 fps=3.2 q=44.0 size=    7455kB time=00:00:07.38 bitrate=8274.7kbits/s speed=0.0542x    frame=  445 fps=3.3 q=44.0 size=    7455kB time=00:00:07.44 bitrate=8208.0kbits/s speed=0.0544x    frame=  447 fps=3.3 q=44.0 size=    7455kB time=00:00:07.48 bitrate=8164.1kbits/s speed=0.0544x    frame=  449 fps=3.2 q=44.0 size=    7455kB time=00:00:07.52 bitrate=8120.7kbits/s speed=0.0544x    frame=  450 fps=3.2 q=44.0 size=    7455kB time=00:00:07.54 bitrate=8099.1kbits/s speed=0.0542x    frame=  453 fps=3.2 q=44.0 size=    7455kB time=00:00:07.60 bitrate=8035.2kbits/s speed=0.0544x    frame=  455 fps=3.2 q=44.0 size=    7455kB time=00:00:07.64 bitrate=7993.1kbits/s speed=0.0545x    frame=  457 fps=3.2 q=44.0 size=    7455kB time=00:00:07.68 bitrate=7951.5kbits/s speed=0.0544x    frame=  459 fps=3.2 q=44.0 size=    7455kB time=00:00:07.72 bitrate=7910.3kbits/s speed=0.0543x    frame=  462 fps=3.2 q=44.0 size=    7455kB time=00:00:07.78 bitrate=7849.3kbits/s speed=0.0544x    frame=  464 fps=3.2 q=44.0 size=    7455kB time=00:00:07.82 bitrate=7809.2kbits/s speed=0.0545x    frame=  466 fps=3.2 q=44.0 size=    7455kB time=00:00:07.86 bitrate=7769.4kbits/s speed=0.0544x    frame=  469 fps=3.2 q=44.0 size=    7455kB time=00:00:07.92 bitrate=7710.6kbits/s speed=0.0546x    frame=  470 fps=3.2 q=44.0 size=    7455kB time=00:00:07.94 bitrate=7691.1kbits/s speed=0.0545x    frame=  471 fps=3.2 q=44.0 size=    7455kB time=00:00:07.96 bitrate=7671.8kbits/s speed=0.0544x    frame=  474 fps=3.2 q=44.0 size=    7455kB time=00:00:08.02 bitrate=7614.4kbits/s speed=0.0544x    frame=  476 fps=3.2 q=44.0 size=    7455kB time=00:00:08.06 bitrate=7576.7kbits/s speed=0.0544x    frame=  478 fps=3.2 q=44.0 size=    7455kB time=00:00:08.10 bitrate=7539.2kbits/s speed=0.0544x    frame=  480 fps=3.2 q=44.0 size=    7455kB time=00:00:08.14 bitrate=7502.2kbits/s speed=0.0545x    frame=  483 fps=3.2 q=44.0 size=    7455kB time=00:00:08.20 bitrate=7447.3kbits/s speed=0.0547x    frame=  484 fps=3.2 q=44.0 size=    7455kB time=00:00:08.22 bitrate=7429.2kbits/s speed=0.0546x    frame=  485 fps=3.2 q=44.0 size=    7455kB time=00:00:08.24 bitrate=7411.2kbits/s speed=0.0545x    frame=  487 fps=3.2 q=44.0 size=    7455kB time=00:00:08.28 bitrate=7375.4kbits/s speed=0.0545x    frame=  491 fps=3.2 q=44.0 size=    7455kB time=00:00:08.36 bitrate=7304.8kbits/s speed=0.0547x    frame=  492 fps=3.2 q=44.0 size=    7455kB time=00:00:08.38 bitrate=7287.4kbits/s speed=0.0545x    frame=  495 fps=3.2 q=44.0 size=    7455kB time=00:00:08.44 bitrate=7235.6kbits/s speed=0.0547x    frame=  496 fps=3.2 q=44.0 size=    7455kB time=00:00:08.46 bitrate=7218.5kbits/s speed=0.0546x    frame=  498 fps=3.2 q=44.0 size=    7455kB time=00:00:08.50 bitrate=7184.5kbits/s speed=0.0546x    frame=  500 fps=3.2 q=44.0 size=   12576kB time=00:00:08.54 bitrate=12062.3kbits/s speed=0.0545x    frame=  500 fps=2.8 q=-1.0 Lsize=   14574kB time=00:00:09.94 bitrate=12010.1kbits/s speed=0.0554x    
video:14570kB audio:0kB subtitle:0kB other streams:0kB global headers:0kB muxing overhead: 0.031033%
bench: utime=671.540s
bench: maxrss=2536440kB
[libx264 @ 0x3aa91c0] frame I:2     Avg QP:33.69  size:443120
[libx264 @ 0x3aa91c0] frame P:134   Avg QP:42.96  size: 56893
[libx264 @ 0x3aa91c0] frame B:364   Avg QP:46.00  size: 17607
[libx264 @ 0x3aa91c0] consecutive B-frames:  0.4%  2.8% 14.4% 82.4%
[libx264 @ 0x3aa91c0] mb I  I16..4: 17.9% 74.9%  7.1%
[libx264 @ 0x3aa91c0] mb P  I16..4:  1.8%  4.2%  0.0%  P16..4: 36.8%  4.0%  5.5%  0.0%  0.0%    skip:47.6%
[libx264 @ 0x3aa91c0] mb B  I16..4:  0.0%  0.1%  0.0%  B16..8: 42.9%  1.4%  0.1%  direct: 0.3%  skip:55.2%  L0:43.0% L1:56.6% BI: 0.4%
[libx264 @ 0x3aa91c0] final ratefactor: 35.67
[libx264 @ 0x3aa91c0] 8x8 transform intra:71.0% inter:87.4%
[libx264 @ 0x3aa91c0] direct mvs  spatial:99.2% temporal:0.8%
[libx264 @ 0x3aa91c0] coded y,uvDC,uvAC intra: 35.4% 49.9% 17.2% inter: 2.9% 4.7% 0.1%
[libx264 @ 0x3aa91c0] i16 v,h,dc,p: 35% 22%  7% 36%
[libx264 @ 0x3aa91c0] i8 v,h,dc,ddl,ddr,vr,hd,vl,hu:  7%  4%  6% 12% 16% 16% 15% 13% 11%
[libx264 @ 0x3aa91c0] i4 v,h,dc,ddl,ddr,vr,hd,vl,hu:  7%  4%  2% 12% 16% 16% 15% 13% 15%
[libx264 @ 0x3aa91c0] i8c dc,h,v,p: 51% 16% 17% 16%
[libx264 @ 0x3aa91c0] Weighted P-Frames: Y:0.7% UV:0.0%
[libx264 @ 0x3aa91c0] ref P L0: 63.1%  6.3% 14.1%  4.1%  3.7%  3.1%  3.3%  2.2%  0.0%
[libx264 @ 0x3aa91c0] ref B L0: 94.6%  3.1%  1.2%  0.4%  0.3%  0.2%  0.2%
[libx264 @ 0x3aa91c0] ref B L1: 98.9%  1.1%
[libx264 @ 0x3aa91c0] kb/s:11934.98
